<?xml version="1.0" encoding="utf-8"?>
<!-- Generator: Adobe Illustrator 15.0.2, SVG Export Plug-In . SVG Version: 6.00 Build 0)  -->
<!DOCTYPE svg PUBLIC "-//W3C//DTD SVG 1.1//EN" "http://www.w3.org/Graphics/SVG/1.1/DTD/svg11.dtd">
<svg version="1.1" id="Calque_1" xmlns="http://www.w3.org/2000/svg" xmlns:xlink="http://www.w3.org/1999/xlink" x="0px" y="0px"
	 width="36px" height="396px" viewBox="0 0 36 396" enable-background="new 0 0 36 396" xml:space="preserve">
<g>
	<rect y="0" fill="#607D8B" fill-opacity="0" width="36" height="396"/>
	<g>
		<path fill="#03A9F4" d="M28.265,55.73H8.571c-0.766,0-1.496-0.151-2.17-0.444c-0.666-0.288-1.262-0.697-1.764-1.209
			c-0.504-0.514-0.904-1.115-1.195-1.8c-0.293-0.688-0.441-1.425-0.441-2.198c0-0.763,0.148-1.494,0.441-2.178
			c0.293-0.676,0.699-1.275,1.209-1.779c0.504-0.508,1.105-0.914,1.781-1.21c0.623-0.27,1.287-0.426,1.983-0.459
			c0.472-0.497,1.017-0.896,1.625-1.188c0.578-0.279,1.205-0.44,1.854-0.48c0.154-0.589,0.39-1.15,0.699-1.669
			c0.379-0.629,0.849-1.182,1.396-1.64c0.553-0.458,1.183-0.823,1.871-1.083c0.692-0.261,1.437-0.393,2.207-0.393
			c1.041,0,2.022,0.246,2.916,0.73c0.778,0.426,1.45,0.991,1.995,1.677c0.216-0.055,0.427-0.102,0.634-0.143
			c0.338-0.068,0.687-0.101,1.035-0.101c0.84,0,1.646,0.164,2.399,0.492c0.746,0.324,1.4,0.773,1.957,1.333
			c0.557,0.561,1.004,1.22,1.324,1.963c0.307,0.709,0.463,1.479,0.482,2.284c0.649,0.442,1.174,1.019,1.555,1.717
			c0.418,0.773,0.633,1.63,0.633,2.551c0,0.671-0.121,1.315-0.365,1.918c-0.235,0.597-0.57,1.133-0.981,1.601
			c-0.42,0.469-0.923,0.858-1.504,1.152c-0.574,0.293-1.203,0.479-1.861,0.549L28.265,55.73z"/>
	</g>
	<g>
		<path fill="#03A9F4" d="M28.265,91.726H8.571c-0.766,0-1.496-0.147-2.17-0.44c-0.666-0.293-1.262-0.701-1.764-1.214
			c-0.504-0.514-0.904-1.114-1.195-1.799c-0.293-0.688-0.441-1.426-0.441-2.198c0-0.763,0.148-1.494,0.441-2.175
			c0.293-0.676,0.699-1.274,1.209-1.782c0.504-0.505,1.105-0.91,1.781-1.207c0.623-0.271,1.287-0.425,1.983-0.464
			c0.472-0.495,1.017-0.895,1.625-1.188c0.578-0.279,1.205-0.439,1.854-0.48c0.154-0.588,0.39-1.146,0.699-1.668
			c0.379-0.629,0.849-1.178,1.396-1.641c0.553-0.457,1.183-0.822,1.871-1.078c0.692-0.262,1.437-0.393,2.207-0.393
			c1.041,0,2.022,0.246,2.916,0.729c0.778,0.426,1.45,0.988,1.995,1.674c0.216-0.055,0.427-0.102,0.634-0.143
			c0.338-0.064,0.687-0.098,1.035-0.098c0.84,0,1.646,0.164,2.399,0.489c0.746,0.324,1.4,0.773,1.957,1.332
			c0.557,0.562,1.004,1.22,1.324,1.963c0.307,0.714,0.463,1.479,0.482,2.285c0.649,0.441,1.174,1.021,1.555,1.715
			c0.418,0.775,0.633,1.636,0.633,2.552c0,0.672-0.121,1.315-0.365,1.918c-0.235,0.598-0.57,1.137-0.981,1.604
			c-0.42,0.469-0.923,0.854-1.504,1.148c-0.574,0.293-1.203,0.479-1.861,0.553L28.265,91.726z"/>
	</g>
	<g>
		<path fill="#03A9F4" d="M28.265,127.727H8.571c-0.766,0-1.496-0.147-2.17-0.44c-0.666-0.293-1.262-0.701-1.764-1.209
			c-0.504-0.519-0.904-1.115-1.195-1.804c-0.293-0.684-0.441-1.422-0.441-2.199c0-0.762,0.148-1.493,0.441-2.174
			c0.293-0.676,0.699-1.278,1.209-1.782c0.504-0.505,1.105-0.91,1.781-1.207c0.623-0.269,1.287-0.429,1.983-0.464
			c0.472-0.495,1.017-0.891,1.625-1.184c0.578-0.283,1.205-0.439,1.854-0.484c0.154-0.588,0.39-1.146,0.699-1.668
			c0.379-0.625,0.849-1.178,1.396-1.639c0.553-0.455,1.183-0.824,1.871-1.084c0.692-0.254,1.437-0.389,2.207-0.389
			c1.041,0,2.022,0.241,2.916,0.729c0.778,0.43,1.45,0.992,1.995,1.674c0.216-0.055,0.427-0.098,0.634-0.143
			c0.338-0.064,0.687-0.098,1.035-0.098c0.84,0,1.646,0.168,2.399,0.493c0.746,0.324,1.4,0.771,1.957,1.328
			c0.557,0.562,1.004,1.224,1.324,1.963c0.307,0.709,0.463,1.482,0.482,2.285c0.649,0.441,1.174,1.021,1.555,1.72
			c0.418,0.771,0.633,1.627,0.633,2.551c0,0.672-0.121,1.315-0.365,1.914c-0.235,0.602-0.57,1.137-0.981,1.604
			c-0.42,0.469-0.923,0.854-1.504,1.148c-0.574,0.293-1.203,0.483-1.861,0.553L28.265,127.727z"/>
	</g>
	<g>
		<path fill="#03A9F4" d="M28.265,163.727H8.571c-0.766,0-1.496-0.148-2.17-0.441c-0.666-0.293-1.262-0.7-1.764-1.209
			c-0.504-0.518-0.904-1.114-1.195-1.795c-0.293-0.69-0.441-1.43-0.441-2.207c0-0.762,0.148-1.494,0.441-2.174
			c0.293-0.676,0.699-1.271,1.209-1.783c0.504-0.504,1.105-0.91,1.781-1.207c0.623-0.268,1.287-0.42,1.983-0.463
			c0.472-0.495,1.017-0.891,1.625-1.184c0.578-0.283,1.205-0.439,1.854-0.484c0.154-0.588,0.39-1.146,0.699-1.659
			c0.379-0.634,0.849-1.187,1.396-1.642c0.553-0.461,1.183-0.83,1.871-1.082c0.692-0.262,1.437-0.396,2.207-0.396
			c1.041,0,2.022,0.25,2.916,0.729c0.778,0.431,1.45,0.992,1.995,1.674c0.216-0.047,0.427-0.098,0.634-0.135
			c0.338-0.072,0.687-0.104,1.035-0.104c0.84,0,1.646,0.168,2.399,0.493c0.746,0.324,1.4,0.771,1.957,1.328
			c0.557,0.568,1.004,1.224,1.324,1.963c0.307,0.718,0.463,1.482,0.482,2.285c0.649,0.449,1.174,1.021,1.555,1.719
			c0.418,0.771,0.633,1.636,0.633,2.552c0,0.672-0.121,1.315-0.365,1.922c-0.235,0.594-0.57,1.129-0.981,1.598
			c-0.42,0.469-0.923,0.854-1.504,1.148c-0.574,0.293-1.203,0.483-1.861,0.553L28.265,163.727z"/>
	</g>
	<g>
		<path fill="#03A9F4" d="M28.265,199.735H8.571c-0.766,0-1.496-0.156-2.17-0.449c-0.666-0.285-1.262-0.692-1.764-1.209
			c-0.504-0.51-0.904-1.114-1.195-1.795c-0.293-0.69-0.441-1.43-0.441-2.199c0-0.762,0.148-1.493,0.441-2.182
			c0.293-0.676,0.699-1.271,1.209-1.775c0.504-0.512,1.105-0.918,1.781-1.215c0.623-0.268,1.287-0.42,1.983-0.455
			c0.472-0.496,1.017-0.897,1.625-1.19c0.578-0.275,1.205-0.439,1.854-0.478c0.154-0.588,0.39-1.153,0.699-1.668
			c0.379-0.633,0.849-1.186,1.396-1.641c0.553-0.461,1.183-0.822,1.871-1.082c0.692-0.262,1.437-0.396,2.207-0.396
			c1.041,0,2.022,0.25,2.916,0.73c0.778,0.43,1.45,0.992,1.995,1.682c0.216-0.055,0.427-0.104,0.634-0.143
			c0.338-0.072,0.687-0.105,1.035-0.105c0.84,0,1.646,0.168,2.399,0.494c0.746,0.324,1.4,0.771,1.957,1.336
			c0.557,0.562,1.004,1.215,1.324,1.963c0.307,0.709,0.463,1.476,0.482,2.285c0.649,0.441,1.174,1.015,1.555,1.711
			c0.418,0.779,0.633,1.636,0.633,2.552c0,0.672-0.121,1.315-0.365,1.922c-0.235,0.594-0.57,1.129-0.981,1.598
			c-0.42,0.469-0.923,0.861-1.504,1.156c-0.574,0.293-1.203,0.477-1.861,0.545L28.265,199.735z"/>
	</g>
	<g>
		<path fill="#03A9F4" d="M28.265,235.727H8.571c-0.766,0-1.496-0.148-2.17-0.441c-0.666-0.293-1.262-0.7-1.764-1.217
			c-0.504-0.51-0.904-1.115-1.195-1.795c-0.293-0.691-0.441-1.43-0.441-2.199c0-0.762,0.148-1.494,0.441-2.174
			c0.293-0.676,0.699-1.279,1.209-1.783c0.504-0.504,1.105-0.91,1.781-1.207c0.623-0.274,1.287-0.428,1.983-0.463
			c0.472-0.496,1.017-0.897,1.625-1.19c0.578-0.275,1.205-0.439,1.854-0.478c0.154-0.588,0.39-1.146,0.699-1.668
			c0.379-0.633,0.849-1.178,1.396-1.641c0.553-0.461,1.183-0.822,1.871-1.082c0.692-0.262,1.437-0.39,2.207-0.39
			c1.041,0,2.022,0.242,2.916,0.73c0.778,0.422,1.45,0.984,1.995,1.674c0.216-0.055,0.427-0.104,0.634-0.143
			c0.338-0.064,0.687-0.099,1.035-0.099c0.84,0,1.646,0.16,2.399,0.486c0.746,0.324,1.4,0.777,1.957,1.336
			c0.557,0.562,1.004,1.215,1.324,1.963c0.307,0.709,0.463,1.476,0.482,2.285c0.649,0.441,1.174,1.021,1.555,1.711
			c0.418,0.779,0.633,1.635,0.633,2.551c0,0.672-0.121,1.316-0.365,1.922c-0.235,0.595-0.57,1.138-0.981,1.605
			c-0.42,0.469-0.923,0.854-1.504,1.148c-0.574,0.293-1.203,0.477-1.861,0.553L28.265,235.727z"/>
	</g>
	<g>
		<path fill="#03A9F4" d="M28.265,271.727H8.571c-0.766,0-1.496-0.148-2.17-0.441c-0.666-0.293-1.262-0.7-1.764-1.217
			c-0.504-0.51-0.904-1.115-1.195-1.795c-0.293-0.684-0.441-1.43-0.441-2.199c0-0.762,0.148-1.494,0.441-2.174
			c0.293-0.676,0.699-1.279,1.209-1.783c0.504-0.504,1.105-0.91,1.781-1.207c0.623-0.274,1.287-0.428,1.983-0.463
			c0.472-0.496,1.017-0.897,1.625-1.19c0.578-0.275,1.205-0.439,1.854-0.478c0.154-0.588,0.39-1.146,0.699-1.668
			c0.379-0.625,0.849-1.178,1.396-1.641c0.553-0.461,1.183-0.822,1.871-1.082c0.692-0.262,1.437-0.39,2.207-0.39
			c1.041,0,2.022,0.242,2.916,0.73c0.778,0.422,1.45,0.992,1.995,1.674c0.216-0.055,0.427-0.104,0.634-0.143
			c0.338-0.064,0.687-0.099,1.035-0.099c0.84,0,1.646,0.16,2.399,0.486c0.746,0.332,1.4,0.777,1.957,1.336
			c0.557,0.562,1.004,1.223,1.324,1.963c0.307,0.709,0.463,1.476,0.482,2.285c0.649,0.441,1.174,1.021,1.555,1.719
			c0.418,0.771,0.633,1.627,0.633,2.552c0,0.663-0.121,1.315-0.365,1.913c-0.235,0.595-0.57,1.138-0.981,1.605
			c-0.42,0.469-0.923,0.854-1.504,1.148c-0.574,0.293-1.203,0.477-1.861,0.553L28.265,271.727z"/>
	</g>
	<g>
		<path fill="#03A9F4" d="M28.265,307.727H8.571c-0.766,0-1.496-0.148-2.17-0.441c-0.666-0.293-1.262-0.7-1.764-1.209
			c-0.504-0.518-0.904-1.114-1.195-1.803c-0.293-0.684-0.441-1.422-0.441-2.199c0-0.762,0.148-1.494,0.441-2.174
			c0.293-0.676,0.699-1.279,1.209-1.783c0.504-0.504,1.105-0.91,1.781-1.207c0.623-0.268,1.287-0.428,1.983-0.463
			c0.472-0.496,1.017-0.891,1.625-1.184c0.578-0.283,1.205-0.439,1.854-0.484c0.154-0.588,0.39-1.146,0.699-1.668
			c0.379-0.625,0.849-1.178,1.396-1.641c0.553-0.453,1.183-0.822,1.871-1.082c0.692-0.254,1.437-0.39,2.207-0.39
			c1.041,0,2.022,0.242,2.916,0.73c0.778,0.43,1.45,0.992,1.995,1.674c0.216-0.055,0.427-0.098,0.634-0.143
			c0.338-0.064,0.687-0.099,1.035-0.099c0.84,0,1.646,0.168,2.399,0.494c0.746,0.324,1.4,0.771,1.957,1.328
			c0.557,0.562,1.004,1.223,1.324,1.963c0.307,0.709,0.463,1.482,0.482,2.285c0.649,0.441,1.174,1.021,1.555,1.719
			c0.418,0.771,0.633,1.627,0.633,2.552c0,0.672-0.121,1.315-0.365,1.913c-0.235,0.603-0.57,1.138-0.981,1.605
			c-0.42,0.469-0.923,0.854-1.504,1.148c-0.574,0.293-1.203,0.483-1.861,0.553L28.265,307.727z"/>
	</g>
	<g>
		<path fill="#03A9F4" d="M28.265,343.927H8.571c-0.766,0-1.496-0.148-2.17-0.441c-0.666-0.293-1.262-0.701-1.764-1.209
			c-0.504-0.518-0.904-1.115-1.195-1.803c-0.293-0.685-0.441-1.422-0.441-2.199c0-0.762,0.148-1.494,0.441-2.174
			c0.293-0.676,0.699-1.271,1.209-1.783c0.504-0.504,1.105-0.91,1.781-1.207c0.623-0.268,1.287-0.42,1.983-0.463
			c0.472-0.496,1.017-0.891,1.625-1.184c0.578-0.283,1.205-0.439,1.854-0.484c0.154-0.588,0.39-1.146,0.699-1.668
			c0.379-0.625,0.849-1.178,1.396-1.633c0.553-0.461,1.183-0.83,1.871-1.082c0.692-0.263,1.437-0.396,2.207-0.396
			c1.041,0,2.022,0.25,2.916,0.73c0.778,0.43,1.45,0.992,1.995,1.674c0.216-0.055,0.427-0.098,0.634-0.143
			c0.338-0.064,0.687-0.099,1.035-0.099c0.84,0,1.646,0.168,2.399,0.494c0.746,0.324,1.4,0.771,1.957,1.328
			c0.557,0.561,1.004,1.223,1.324,1.963c0.307,0.717,0.463,1.482,0.482,2.285c0.649,0.441,1.174,1.021,1.555,1.719
			c0.418,0.771,0.633,1.635,0.633,2.551c0,0.672-0.121,1.316-0.365,1.914c-0.235,0.603-0.57,1.138-0.981,1.605
			c-0.42,0.469-0.923,0.854-1.504,1.147c-0.574,0.293-1.203,0.484-1.861,0.554L28.265,343.927z"/>
	</g>
	<g>
		<path fill="#03A9F4" d="M28.265,379.727H8.571c-0.766,0-1.496-0.148-2.17-0.441c-0.666-0.293-1.262-0.7-1.764-1.209
			c-0.504-0.51-0.904-1.114-1.195-1.795c-0.293-0.69-0.441-1.43-0.441-2.198c0-0.763,0.148-1.494,0.441-2.183
			c0.293-0.676,0.699-1.271,1.209-1.783c0.504-0.504,1.105-0.909,1.781-1.207c0.623-0.268,1.287-0.42,1.983-0.455
			c0.472-0.495,1.017-0.897,1.625-1.19c0.578-0.283,1.205-0.439,1.854-0.478c0.154-0.596,0.39-1.153,0.699-1.668
			c0.379-0.633,0.849-1.186,1.396-1.641c0.553-0.461,1.183-0.822,1.871-1.082c0.692-0.262,1.437-0.396,2.207-0.396
			c1.041,0,2.022,0.25,2.916,0.729c0.778,0.43,1.45,0.992,1.995,1.674c0.216-0.047,0.427-0.098,0.634-0.135
			c0.338-0.072,0.687-0.104,1.035-0.104c0.84,0,1.646,0.168,2.399,0.493c0.746,0.324,1.4,0.771,1.957,1.336
			c0.557,0.562,1.004,1.216,1.324,1.955c0.307,0.718,0.463,1.482,0.482,2.285c0.649,0.449,1.174,1.021,1.555,1.719
			c0.418,0.771,0.633,1.636,0.633,2.552c0,0.672-0.121,1.315-0.365,1.922c-0.235,0.594-0.57,1.129-0.981,1.598
			c-0.42,0.469-0.923,0.861-1.504,1.156c-0.574,0.293-1.203,0.477-1.861,0.545L28.265,379.727z"/>
	</g>
	<polygon fill="#FFC107" points="23.454,61.597 18.001,54.367 12.548,61.597 15.981,61.597 15.981,68.132 20.019,68.132 
		20.019,61.597 	"/>
	<polygon fill="#FFC107" points="23.454,96.062 18.001,88.828 12.548,96.062 15.981,96.062 15.981,102.595 20.019,102.595 
		20.019,96.062 	"/>
	<polygon fill="#FFC107" points="23.454,130.867 18.001,123.641 12.548,130.867 15.981,130.867 15.981,137.408 20.019,137.408 
		20.019,130.867 	"/>
	<polygon fill="#FFC107" points="23.454,165.508 18.001,158.274 12.548,165.508 15.981,165.508 15.981,172.04 20.019,172.04 
		20.019,165.508 	"/>
	<polygon fill="#FFC107" points="23.454,200.149 18.001,192.913 12.548,200.149 15.981,200.149 15.981,206.682 20.019,206.682 
		20.019,200.149 	"/>
	<polygon fill="#FFC107" points="23.454,234.774 18.001,227.538 12.548,234.774 15.981,234.774 15.981,241.307 20.019,241.307 
		20.019,234.774 	"/>
	<polygon fill="#FFC107" points="23.454,269.413 18.001,262.18 12.548,269.413 15.981,269.413 15.981,275.948 20.019,275.948 
		20.019,269.413 	"/>
	<polygon fill="#FFC107" points="23.454,304.055 18.001,296.821 12.548,304.055 15.981,304.055 15.981,310.588 20.019,310.588 
		20.019,304.055 	"/>
	<polygon fill="#FFC107" points="23.454,338.888 18.001,331.654 12.548,338.888 15.981,338.888 15.981,345.421 20.019,345.421 
		20.019,338.888 	"/>
	<polygon fill="#FFC107" points="23.454,373.192 18.001,365.965 12.548,373.192 15.981,373.192 15.981,379.727 20.019,379.727 
		20.019,373.192 	"/>
	<g>
		<path fill="#03A9F4" d="M28.265,19.726H8.571c-0.766,0-1.496-0.147-2.17-0.441c-0.666-0.292-1.262-0.7-1.764-1.214
			c-0.504-0.512-0.904-1.114-1.195-1.795c-0.295-0.687-0.441-1.428-0.441-2.197c0-0.763,0.147-1.494,0.441-2.178
			c0.292-0.676,0.699-1.275,1.203-1.783c0.51-0.504,1.111-0.911,1.787-1.206c0.623-0.273,1.285-0.426,1.983-0.463
			c0.472-0.498,1.015-0.896,1.62-1.188c0.583-0.279,1.209-0.44,1.859-0.482c0.154-0.587,0.389-1.146,0.699-1.664
			c0.379-0.629,0.849-1.182,1.396-1.639c0.553-0.462,1.183-0.827,1.871-1.083c0.692-0.261,1.437-0.393,2.202-0.393
			c1.046,0,2.027,0.247,2.921,0.73c0.778,0.426,1.45,0.991,1.995,1.673c0.216-0.051,0.427-0.102,0.634-0.14
			c0.338-0.068,0.687-0.1,1.034-0.1c0.841,0,1.646,0.164,2.4,0.488c0.746,0.328,1.4,0.774,1.957,1.333
			c0.557,0.563,1.004,1.224,1.324,1.962c0.307,0.713,0.463,1.479,0.482,2.285c0.649,0.446,1.174,1.021,1.555,1.715
			c0.418,0.774,0.633,1.635,0.633,2.556c0,0.667-0.121,1.313-0.365,1.918c-0.236,0.593-0.57,1.133-0.981,1.6
			c-0.421,0.469-0.923,0.855-1.505,1.153c-0.573,0.293-1.202,0.476-1.86,0.548L28.265,19.726z"/>
	</g>
	<polygon fill="#FFC107" points="23.454,26.789 18.001,19.558 12.548,26.789 15.981,26.789 15.981,33.327 20.019,33.327 
		20.019,26.789 	"/>
</g>
</svg>
